<svg xmlns="http://www.w3.org/2000/svg" width="24" height="24" viewBox="0 0 24 24" fill="none">
  <path d="M19.8777 9.55004C19.7946 9.38513 19.6674 9.24645 19.5103 9.14937C19.3532 9.05229 19.1723 9.0006 18.9877 9.00004H13.9877V3.00004C13.9984 2.78073 13.9366 2.56397 13.8119 2.38324C13.6872 2.20251 13.5065 2.06785 13.2977 2.00004C13.0969 1.93399 12.8803 1.93324 12.6791 1.99792C12.4779 2.0626 12.3023 2.18937 12.1777 2.36004L4.17765 13.36C4.07742 13.5049 4.01723 13.6737 4.00319 13.8493C3.98914 14.0249 4.02173 14.2011 4.09765 14.36C4.16758 14.5418 4.28904 14.6992 4.44714 14.8129C4.60525 14.9266 4.7931 14.9916 4.98765 15H9.98765V21C9.98781 21.2109 10.0546 21.4164 10.1785 21.587C10.3025 21.7576 10.4772 21.8847 10.6777 21.95C10.7781 21.9812 10.8825 21.998 10.9877 22C11.1454 22.0005 11.3011 21.9635 11.4419 21.8923C11.5826 21.821 11.7046 21.7174 11.7977 21.59L19.7977 10.59C19.9054 10.4408 19.9699 10.2648 19.984 10.0813C19.9981 9.8978 19.9613 9.71397 19.8777 9.55004ZM11.9877 17.92V14C11.9877 13.7348 11.8823 13.4805 11.6948 13.2929C11.5072 13.1054 11.2529 13 10.9877 13H6.98765L11.9877 6.08004V10C11.9877 10.2653 12.093 10.5196 12.2805 10.7071C12.4681 10.8947 12.7224 11 12.9877 11H16.9877L11.9877 17.92Z" fill="#171F22"/>
</svg>