<svg xmlns="http://www.w3.org/2000/svg" width="16" height="16" viewBox="0 0 16 16" fill="none">
  <path fill-rule="evenodd" clip-rule="evenodd" d="M4 3.63214V8.07763C4.51817 7.84013 5.086 7.71387 5.66666 7.71387C6.71368 7.71387 7.71895 8.12439 8.46666 8.8573C8.96514 9.3459 9.63532 9.61958 10.3333 9.61958C10.9418 9.61958 11.5291 9.41158 12 9.03454V4.58912C11.4818 4.82663 10.914 4.95292 10.3333 4.95292C9.28632 4.95292 8.28105 4.54239 7.53333 3.80949C7.03485 3.32088 6.36467 3.0472 5.66666 3.0472C5.05817 3.0472 4.47085 3.25514 4 3.63214ZM4 9.63219C4.47087 9.25517 5.05819 9.0472 5.66666 9.0472C6.36467 9.0472 7.03485 9.32088 7.53333 9.80949C8.28105 10.5424 9.28632 10.9529 10.3333 10.9529C11.3804 10.9529 12.3856 10.5423 13.1333 9.80943C13.2612 9.68404 13.3333 9.51246 13.3333 9.33333V3.33333C13.3333 3.0649 13.1723 2.82266 12.9249 2.7187C12.6774 2.61474 12.3917 2.66934 12.2 2.85724C11.7015 3.34586 11.0313 3.61958 10.3333 3.61958C9.63532 3.61958 8.96514 3.3459 8.46666 2.8573C7.71895 2.12439 6.71368 1.71387 5.66666 1.71387C4.61968 1.71387 3.6144 2.12431 2.86666 2.85724C2.73875 2.98262 2.66666 3.15421 2.66666 3.33333V9.33289C2.66666 9.33325 2.66666 9.33361 2.66666 9.33397V14C2.66666 14.3682 2.96514 14.6667 3.33333 14.6667C3.70152 14.6667 4 14.3682 4 14V9.63219Z" fill="#171F22"/>
</svg>