<svg width="89" height="40" viewBox="0 0 89 40" fill="none" xmlns="http://www.w3.org/2000/svg">
<rect width="89" height="40" rx="8" fill="white"/>
<path fill-rule="evenodd" clip-rule="evenodd" d="M18.5 14.1667C18.5 13.2462 19.2462 12.5 20.1667 12.5C21.0871 12.5 21.8333 13.2462 21.8333 14.1667C21.8333 15.0871 21.0871 15.8333 20.1667 15.8333C19.2462 15.8333 18.5 15.0871 18.5 14.1667ZM24.3333 14.1667C24.3333 13.2462 25.0795 12.5 26 12.5C26.9205 12.5 27.6667 13.2462 27.6667 14.1667C27.6667 15.0871 26.9205 15.8333 26 15.8333C25.0795 15.8333 24.3333 15.0871 24.3333 14.1667ZM30.1667 14.1667C30.1667 13.2462 30.9129 12.5 31.8333 12.5C32.7538 12.5 33.5 13.2462 33.5 14.1667C33.5 15.0871 32.7538 15.8333 31.8333 15.8333C30.9129 15.8333 30.1667 15.0871 30.1667 14.1667ZM18.5 20C18.5 19.0795 19.2462 18.3333 20.1667 18.3333C21.0871 18.3333 21.8333 19.0795 21.8333 20C21.8333 20.9205 21.0871 21.6667 20.1667 21.6667C19.2462 21.6667 18.5 20.9205 18.5 20ZM24.3333 20C24.3333 19.0795 25.0795 18.3333 26 18.3333C26.9205 18.3333 27.6667 19.0795 27.6667 20C27.6667 20.9205 26.9205 21.6667 26 21.6667C25.0795 21.6667 24.3333 20.9205 24.3333 20ZM30.1667 20C30.1667 19.0795 30.9129 18.3333 31.8333 18.3333C32.7538 18.3333 33.5 19.0795 33.5 20C33.5 20.9205 32.7538 21.6667 31.8333 21.6667C30.9129 21.6667 30.1667 20.9205 30.1667 20ZM18.5 25.8333C18.5 24.9129 19.2462 24.1667 20.1667 24.1667C21.0871 24.1667 21.8333 24.9129 21.8333 25.8333C21.8333 26.7538 21.0871 27.5 20.1667 27.5C19.2462 27.5 18.5 26.7538 18.5 25.8333ZM24.3333 25.8333C24.3333 24.9129 25.0795 24.1667 26 24.1667C26.9205 24.1667 27.6667 24.9129 27.6667 25.8333C27.6667 26.7538 26.9205 27.5 26 27.5C25.0795 27.5 24.3333 26.7538 24.3333 25.8333ZM30.1667 25.8333C30.1667 24.9129 30.9129 24.1667 31.8333 24.1667C32.7538 24.1667 33.5 24.9129 33.5 25.8333C33.5 26.7538 32.7538 27.5 31.8333 27.5C30.9129 27.5 30.1667 26.7538 30.1667 25.8333Z" fill="#617177"/>
<path d="M49.95 24.14C48.9887 24.14 48.1113 23.916 47.318 23.468C46.5247 23.02 45.8993 22.4133 45.442 21.648C44.994 20.8733 44.77 20.024 44.77 19.1C44.77 18.176 44.994 17.3313 45.442 16.566C45.8993 15.7913 46.5247 15.18 47.318 14.732C48.1113 14.284 48.9887 14.06 49.95 14.06C50.8367 14.06 51.6207 14.2467 52.302 14.62C52.9927 14.9933 53.5387 15.432 53.94 15.936L52.862 16.818C52.5167 16.426 52.1107 16.104 51.644 15.852C51.1867 15.5907 50.622 15.46 49.95 15.46C49.2873 15.46 48.676 15.6233 48.116 15.95C47.556 16.2673 47.1127 16.706 46.786 17.266C46.4687 17.826 46.31 18.4373 46.31 19.1C46.31 19.7627 46.4687 20.374 46.786 20.934C47.1127 21.494 47.556 21.9373 48.116 22.264C48.676 22.5813 49.2873 22.74 49.95 22.74C50.5287 22.74 51.056 22.6327 51.532 22.418C52.0173 22.2033 52.3767 21.9607 52.61 21.69V20.15H50.51V18.82H54.15V22.25C53.9167 22.5487 53.59 22.8427 53.17 23.132C52.7593 23.4213 52.274 23.664 51.714 23.86C51.1633 24.0467 50.5753 24.14 49.95 24.14ZM56.0405 24V17.28H57.4405V18.162H57.4685C57.6459 17.9007 57.9119 17.6673 58.2665 17.462C58.6305 17.2473 59.0319 17.14 59.4705 17.14H59.8205V18.61C59.6059 18.5633 59.4192 18.54 59.2605 18.54C58.9339 18.54 58.6305 18.6287 58.3505 18.806C58.0705 18.974 57.8465 19.2167 57.6785 19.534C57.5199 19.842 57.4405 20.1873 57.4405 20.57V24H56.0405ZM62.5555 24H61.1555V17.28H62.5555V24ZM61.8555 16.02C61.6408 16.02 61.4448 15.9407 61.2675 15.782C61.0995 15.614 61.0155 15.4133 61.0155 15.18C61.0155 14.9467 61.0995 14.7507 61.2675 14.592C61.4448 14.424 61.6408 14.34 61.8555 14.34C62.0701 14.34 62.2615 14.424 62.4295 14.592C62.6068 14.7507 62.6955 14.9467 62.6955 15.18C62.6955 15.4133 62.6068 15.614 62.4295 15.782C62.2615 15.9407 62.0701 16.02 61.8555 16.02ZM67.3155 24.14C66.7555 24.14 66.2328 23.9907 65.7475 23.692C65.2715 23.384 64.8888 22.964 64.5995 22.432C64.3101 21.9 64.1655 21.3027 64.1655 20.64C64.1655 19.9773 64.3101 19.38 64.5995 18.848C64.8888 18.316 65.2715 17.9007 65.7475 17.602C66.2328 17.294 66.7555 17.14 67.3155 17.14C67.8381 17.14 68.3048 17.252 68.7155 17.476C69.1355 17.7 69.4341 17.952 69.6115 18.232H69.6255V14.2H71.0255V24H69.6255V23.048H69.6115C69.4341 23.328 69.1355 23.58 68.7155 23.804C68.3048 24.028 67.8381 24.14 67.3155 24.14ZM67.5955 22.81C67.9688 22.81 68.3095 22.7167 68.6175 22.53C68.9255 22.3433 69.1681 22.0867 69.3455 21.76C69.5321 21.424 69.6255 21.0507 69.6255 20.64C69.6255 20.2293 69.5321 19.8607 69.3455 19.534C69.1681 19.198 68.9255 18.9367 68.6175 18.75C68.3095 18.5633 67.9688 18.47 67.5955 18.47C67.2221 18.47 66.8815 18.5633 66.5735 18.75C66.2655 18.9367 66.0181 19.198 65.8315 19.534C65.6541 19.8607 65.5655 20.2293 65.5655 20.64C65.5655 21.0507 65.6541 21.424 65.8315 21.76C66.0181 22.0867 66.2655 22.3433 66.5735 22.53C66.8815 22.7167 67.2221 22.81 67.5955 22.81Z" fill="#617177"/>
</svg>
