<svg xmlns="http://www.w3.org/2000/svg" width="16" height="16" viewBox="0 0 16 16" fill="none">
<path fill-rule="evenodd" clip-rule="evenodd" d="M11.5092 3.92303C10.5219 3.06142 9.25189 2.59345 7.94156 2.60842C6.63123 2.62339 5.37227 3.12024 4.40488 4.00418C3.43749 4.88811 2.82939 6.09727 2.69659 7.40094C2.65928 7.76723 2.33209 8.03392 1.9658 7.99661C1.5995 7.9593 1.33281 7.63211 1.37012 7.26582C1.53612 5.63623 2.29624 4.12479 3.50548 3.01987C4.71472 1.91494 6.28841 1.29388 7.92633 1.27517C9.56424 1.25647 11.1517 1.84142 12.3859 2.91844C13.62 3.99545 14.4145 5.48914 14.6177 7.11451C14.8208 8.73988 14.4185 10.3832 13.4874 11.7308C12.5563 13.0785 11.1617 14.0362 9.56959 14.4213C7.97747 14.8063 6.29931 14.5917 4.8553 13.8185C4.00684 13.3641 3.27411 12.7356 2.70002 11.9823V13.3334C2.70002 13.7016 2.40155 14 2.03336 14C1.66517 14 1.36669 13.7016 1.36669 13.3334V10C1.36669 9.63186 1.66517 9.33338 2.03336 9.33338H2.35114C2.36149 9.33314 2.37182 9.33314 2.38213 9.33338H5.36669C5.73488 9.33338 6.03336 9.63186 6.03336 10C6.03336 10.3682 5.73488 10.6667 5.36669 10.6667H3.41801C3.91102 11.496 4.62332 12.1818 5.48474 12.6431C6.63995 13.2617 7.98247 13.4333 9.25616 13.1253C10.5299 12.8173 11.6456 12.0511 12.3904 10.9729C13.1353 9.89481 13.4572 8.58018 13.2946 7.27989C13.1321 5.97959 12.4965 4.78464 11.5092 3.92303ZM8.00002 4.66667C8.36821 4.66667 8.66669 4.96514 8.66669 5.33333V7.72386L9.80476 8.86193C10.0651 9.12228 10.0651 9.54439 9.80476 9.80474C9.54441 10.0651 9.1223 10.0651 8.86195 9.80474L7.52862 8.4714C7.40359 8.34638 7.33335 8.17681 7.33335 8V5.33333C7.33335 4.96514 7.63183 4.66667 8.00002 4.66667Z" fill="#617177"/>
</svg>