<svg xmlns="http://www.w3.org/2000/svg" width="16" height="16" viewBox="0 0 16 16" fill="none">
  <path fill-rule="evenodd" clip-rule="evenodd" d="M7.99998 2.66666C5.05446 2.66666 2.66665 5.05448 2.66665 8C2.66665 10.9455 5.05446 13.3333 7.99998 13.3333C10.9455 13.3333 13.3333 10.9455 13.3333 8C13.3333 5.05448 10.9455 2.66666 7.99998 2.66666ZM1.33331 8C1.33331 4.3181 4.31808 1.33333 7.99998 1.33333C11.6819 1.33333 14.6666 4.3181 14.6666 8C14.6666 11.6819 11.6819 14.6667 7.99998 14.6667C4.31808 14.6667 1.33331 11.6819 1.33331 8ZM7.33331 5.33333C7.33331 4.96514 7.63179 4.66666 7.99998 4.66666H8.00665C8.37484 4.66666 8.67331 4.96514 8.67331 5.33333C8.67331 5.70152 8.37484 6 8.00665 6H7.99998C7.63179 6 7.33331 5.70152 7.33331 5.33333ZM6.66665 8C6.66665 7.6318 6.96512 7.33333 7.33331 7.33333H7.99998C8.36817 7.33333 8.66665 7.6318 8.66665 8V10C9.03484 10 9.33331 10.2985 9.33331 10.6667C9.33331 11.0349 9.03484 11.3333 8.66665 11.3333H7.99998C7.63179 11.3333 7.33331 11.0349 7.33331 10.6667V8.66666C6.96512 8.66666 6.66665 8.36819 6.66665 8Z" fill="#617177"/>
</svg>