<svg width="20" height="20" viewBox="0 0 20 20" fill="none" xmlns="http://www.w3.org/2000/svg">
<g id="Icon">
<path id="Vector (Stroke)" fill-rule="evenodd" clip-rule="evenodd" d="M2.39892 3.23223C2.86776 2.76339 3.50365 2.5 4.16669 2.5H10C10.6631 2.5 11.2989 2.76339 11.7678 3.23223C12.2366 3.70107 12.5 4.33696 12.5 5V6.66667C12.5 7.1269 12.1269 7.5 11.6667 7.5C11.2064 7.5 10.8334 7.1269 10.8334 6.66667V5C10.8334 4.77899 10.7456 4.56702 10.5893 4.41074C10.433 4.25446 10.221 4.16667 10 4.16667H4.16669C3.94567 4.16667 3.73371 4.25446 3.57743 4.41074C3.42115 4.56702 3.33335 4.77899 3.33335 5V15C3.33335 15.221 3.42115 15.433 3.57743 15.5893C3.73371 15.7455 3.94567 15.8333 4.16669 15.8333H10C10.221 15.8333 10.433 15.7455 10.5893 15.5893C10.7456 15.433 10.8334 15.221 10.8334 15V13.3333C10.8334 12.8731 11.2064 12.5 11.6667 12.5C12.1269 12.5 12.5 12.8731 12.5 13.3333V15C12.5 15.663 12.2366 16.2989 11.7678 16.7678C11.2989 17.2366 10.6631 17.5 10 17.5H4.16669C3.50365 17.5 2.86776 17.2366 2.39892 16.7678C1.93008 16.2989 1.66669 15.663 1.66669 15V5C1.66669 4.33696 1.93008 3.70107 2.39892 3.23223ZM14.4108 6.91074C14.7362 6.58531 15.2638 6.58531 15.5893 6.91074L18.0893 9.41074C18.4147 9.73618 18.4147 10.2638 18.0893 10.5893L15.5893 13.0893C15.2638 13.4147 14.7362 13.4147 14.4108 13.0893C14.0853 12.7638 14.0853 12.2362 14.4108 11.9107L15.4882 10.8333H5.83335C5.37312 10.8333 5.00002 10.4602 5.00002 10C5.00002 9.53976 5.37312 9.16667 5.83335 9.16667H15.4882L14.4108 8.08926C14.0853 7.76382 14.0853 7.23618 14.4108 6.91074Z" fill="#617177"/>
</g>
</svg>
