<svg xmlns="http://www.w3.org/2000/svg" width="16" height="16" viewBox="0 0 16 16" fill="none">
<path fill-rule="evenodd" clip-rule="evenodd" d="M8 2.66668C5.05448 2.66668 2.66667 5.05449 2.66667 8.00001C2.66667 10.9455 5.05448 13.3333 8 13.3333C10.9455 13.3333 13.3333 10.9455 13.3333 8.00001C13.3333 5.05449 10.9455 2.66668 8 2.66668ZM1.33333 8.00001C1.33333 4.31811 4.3181 1.33334 8 1.33334C11.6819 1.33334 14.6667 4.31811 14.6667 8.00001C14.6667 11.6819 11.6819 14.6667 8 14.6667C4.3181 14.6667 1.33333 11.6819 1.33333 8.00001Z" fill="#617177"/>
<path fill-rule="evenodd" clip-rule="evenodd" d="M8 10.6667C8.36819 10.6667 8.66667 10.9652 8.66667 11.3333V11.34C8.66667 11.7082 8.36819 12.0067 8 12.0067C7.63181 12.0067 7.33333 11.7082 7.33333 11.34V11.3333C7.33333 10.9652 7.63181 10.6667 8 10.6667Z" fill="#617177"/>
<path fill-rule="evenodd" clip-rule="evenodd" d="M6.98317 4.22995C7.3161 4.06521 7.68274 3.98 8.0542 3.98103C8.42566 3.98206 8.79181 4.0693 9.12383 4.23589C9.45585 4.40247 9.74466 4.64385 9.96754 4.94102C10.1904 5.23819 10.3413 5.58304 10.4082 5.94842C10.4752 6.3138 10.4564 6.68973 10.3534 7.04663C10.2504 7.40352 10.0659 7.73163 9.81455 8.00512C9.56318 8.27861 9.25175 8.49002 8.90479 8.6227C8.89916 8.62485 8.8935 8.62693 8.88782 8.62893C8.81965 8.6529 8.76112 8.69837 8.72104 8.75849C8.68096 8.8186 8.6615 8.89012 8.6656 8.96226C8.68645 9.32986 8.40535 9.64476 8.03775 9.66561C7.67015 9.68646 7.35525 9.40536 7.3344 9.03776C7.31394 8.67706 7.41124 8.31949 7.61164 8.01888C7.80996 7.7214 8.09863 7.49567 8.43492 7.37486C8.58656 7.31575 8.7227 7.22271 8.83288 7.10284C8.9446 6.98129 9.02658 6.83546 9.07237 6.67685C9.11815 6.51823 9.1265 6.35114 9.09674 6.18875C9.06698 6.02636 8.99993 5.8731 8.90088 5.74102C8.80182 5.60894 8.67345 5.50166 8.52589 5.42763C8.37833 5.35359 8.21559 5.31482 8.0505 5.31436C7.88541 5.3139 7.72246 5.35177 7.57449 5.42499C7.42652 5.49821 7.29756 5.60477 7.19777 5.7363C6.97523 6.02962 6.55704 6.08699 6.26371 5.86445C5.97039 5.64191 5.91301 5.22371 6.13556 4.93039C6.36008 4.63446 6.65023 4.39469 6.98317 4.22995Z" fill="#617177"/>
</svg>