<svg width="111" height="40" viewBox="0 0 111 40" fill="none" xmlns="http://www.w3.org/2000/svg">
<rect width="111" height="40" rx="8" fill="white"/>
<path fill-rule="evenodd" clip-rule="evenodd" d="M25.1667 13.3333C24.7064 13.3333 24.3333 13.7064 24.3333 14.1667C24.3333 14.6269 24.7064 15 25.1667 15H26.8333C27.2936 15 27.6667 14.6269 27.6667 14.1667C27.6667 13.7064 27.2936 13.3333 26.8333 13.3333H25.1667ZM22.8089 13.3333C23.1521 12.3623 24.0781 11.6667 25.1667 11.6667H26.8333C27.9218 11.6667 28.8479 12.3623 29.1911 13.3333H30.1667C30.8297 13.3333 31.4656 13.5967 31.9344 14.0656C32.4033 14.5344 32.6667 15.1703 32.6667 15.8333V25.8333C32.6667 26.4964 32.4033 27.1323 31.9344 27.6011C31.4656 28.0699 30.8297 28.3333 30.1667 28.3333H21.8333C21.1703 28.3333 20.5344 28.0699 20.0656 27.6011C19.5967 27.1322 19.3333 26.4964 19.3333 25.8333V15.8333C19.3333 15.1703 19.5967 14.5344 20.0656 14.0656C20.5344 13.5967 21.1703 13.3333 21.8333 13.3333H22.8089ZM22.8089 15H21.8333C21.6123 15 21.4004 15.0878 21.2441 15.2441C21.0878 15.4003 21 15.6123 21 15.8333V25.8333C21 26.0543 21.0878 26.2663 21.2441 26.4226C21.4004 26.5789 21.6123 26.6667 21.8333 26.6667H30.1667C30.3877 26.6667 30.5996 26.5789 30.7559 26.4226C30.9122 26.2663 31 26.0543 31 25.8333V15.8333C31 15.6123 30.9122 15.4003 30.7559 15.2441C30.5996 15.0878 30.3877 15 30.1667 15H29.1911C28.8479 15.971 27.9218 16.6667 26.8333 16.6667H25.1667C24.0781 16.6667 23.1521 15.971 22.8089 15ZM23.5 19.1667C23.9602 19.1667 24.3333 19.5398 24.3333 20V24.1667C24.3333 24.6269 23.9602 25 23.5 25C23.0398 25 22.6667 24.6269 22.6667 24.1667V20C22.6667 19.5398 23.0398 19.1667 23.5 19.1667ZM28.5 20.8333C28.9602 20.8333 29.3333 21.2064 29.3333 21.6667V24.1667C29.3333 24.6269 28.9602 25 28.5 25C28.0398 25 27.6667 24.6269 27.6667 24.1667V21.6667C27.6667 21.2064 28.0398 20.8333 28.5 20.8333ZM26 22.5C26.4602 22.5 26.8333 22.8731 26.8333 23.3333V24.1667C26.8333 24.6269 26.4602 25 26 25C25.5398 25 25.1667 24.6269 25.1667 24.1667V23.3333C25.1667 22.8731 25.5398 22.5 26 22.5Z" fill="#617177"/>
<path d="M53.03 24H51.28L49.25 20.36H46.94V24H45.4V14.2H49.46C50.076 14.2 50.6267 14.3353 51.112 14.606C51.6067 14.8767 51.9893 15.2453 52.26 15.712C52.54 16.1787 52.68 16.7013 52.68 17.28C52.68 17.9147 52.512 18.484 52.176 18.988C51.84 19.492 51.3873 19.8653 50.818 20.108L53.03 24ZM46.94 15.6V18.96H49.46C49.9547 18.96 50.356 18.8013 50.664 18.484C50.9813 18.1667 51.14 17.7653 51.14 17.28C51.14 16.7853 50.9813 16.384 50.664 16.076C50.356 15.7587 49.9547 15.6 49.46 15.6H46.94ZM57.6577 24.14C57.0137 24.14 56.421 23.986 55.8797 23.678C55.3477 23.37 54.9277 22.95 54.6197 22.418C54.3117 21.8767 54.1577 21.284 54.1577 20.64C54.1577 19.996 54.3117 19.408 54.6197 18.876C54.9277 18.344 55.343 17.924 55.8657 17.616C56.3883 17.2987 56.9623 17.14 57.5877 17.14C58.213 17.14 58.773 17.2847 59.2677 17.574C59.7717 17.854 60.1637 18.246 60.4437 18.75C60.733 19.2447 60.8777 19.8047 60.8777 20.43C60.8777 20.682 60.8543 20.9153 60.8077 21.13H55.6277C55.7023 21.5967 55.9357 21.9933 56.3277 22.32C56.7197 22.6467 57.1863 22.81 57.7277 22.81C58.409 22.81 59.039 22.5393 59.6177 21.998L60.5277 22.894C60.2663 23.2207 59.8837 23.51 59.3797 23.762C58.885 24.014 58.311 24.14 57.6577 24.14ZM59.4217 20.01C59.319 19.5153 59.109 19.1233 58.7917 18.834C58.4743 18.5447 58.073 18.4 57.5877 18.4C57.065 18.4 56.6357 18.5447 56.2997 18.834C55.973 19.1233 55.7397 19.5153 55.5997 20.01H59.4217ZM62.3433 26.94V17.28H63.7433V18.232H63.7573C63.9346 17.952 64.2286 17.7 64.6393 17.476C65.0593 17.252 65.5306 17.14 66.0533 17.14C66.6133 17.14 67.1313 17.294 67.6073 17.602C68.0926 17.9007 68.4799 18.316 68.7693 18.848C69.0586 19.38 69.2033 19.9773 69.2033 20.64C69.2033 21.3027 69.0586 21.9 68.7693 22.432C68.4799 22.964 68.0926 23.384 67.6073 23.692C67.1313 23.9907 66.6133 24.14 66.0533 24.14C65.5306 24.14 65.0593 24.028 64.6393 23.804C64.2286 23.58 63.9346 23.328 63.7573 23.048H63.7433V26.94H62.3433ZM65.7733 22.81C66.1466 22.81 66.4873 22.7167 66.7953 22.53C67.1033 22.3433 67.3459 22.0867 67.5233 21.76C67.7099 21.424 67.8033 21.0507 67.8033 20.64C67.8033 20.2293 67.7099 19.8607 67.5233 19.534C67.3459 19.198 67.1033 18.9367 66.7953 18.75C66.4873 18.5633 66.1466 18.47 65.7733 18.47C65.3999 18.47 65.0593 18.5633 64.7513 18.75C64.4433 18.9367 64.1959 19.198 64.0093 19.534C63.8319 19.8607 63.7433 20.2293 63.7433 20.64C63.7433 21.0507 63.8319 21.424 64.0093 21.76C64.1959 22.0867 64.4433 22.3433 64.7513 22.53C65.0593 22.7167 65.3999 22.81 65.7733 22.81ZM73.8178 24.14C73.1738 24.14 72.5811 23.986 72.0398 23.678C71.5078 23.37 71.0878 22.95 70.7798 22.418C70.4718 21.8767 70.3178 21.284 70.3178 20.64C70.3178 19.996 70.4718 19.408 70.7798 18.876C71.0878 18.3347 71.5078 17.91 72.0398 17.602C72.5811 17.294 73.1738 17.14 73.8178 17.14C74.4618 17.14 75.0498 17.294 75.5818 17.602C76.1231 17.91 76.5478 18.3347 76.8558 18.876C77.1638 19.408 77.3178 19.996 77.3178 20.64C77.3178 21.284 77.1638 21.8767 76.8558 22.418C76.5478 22.95 76.1231 23.37 75.5818 23.678C75.0498 23.986 74.4618 24.14 73.8178 24.14ZM73.8178 22.81C74.2098 22.81 74.5645 22.7167 74.8818 22.53C75.2085 22.3433 75.4605 22.0867 75.6378 21.76C75.8245 21.424 75.9178 21.0507 75.9178 20.64C75.9178 20.2293 75.8245 19.8607 75.6378 19.534C75.4605 19.198 75.2085 18.9367 74.8818 18.75C74.5645 18.5633 74.2098 18.47 73.8178 18.47C73.4258 18.47 73.0665 18.5633 72.7398 18.75C72.4225 18.9367 72.1705 19.198 71.9838 19.534C71.8065 19.8607 71.7178 20.2293 71.7178 20.64C71.7178 21.0507 71.8065 21.424 71.9838 21.76C72.1705 22.0867 72.4225 22.3433 72.7398 22.53C73.0665 22.7167 73.4258 22.81 73.8178 22.81ZM78.8589 24V17.28H80.2589V18.162H80.2869C80.4642 17.9007 80.7302 17.6673 81.0849 17.462C81.4489 17.2473 81.8502 17.14 82.2889 17.14H82.6389V18.61C82.4242 18.5633 82.2376 18.54 82.0789 18.54C81.7522 18.54 81.4489 18.6287 81.1689 18.806C80.8889 18.974 80.6649 19.2167 80.4969 19.534C80.3382 19.842 80.2589 20.1873 80.2589 20.57V24H78.8589ZM86.6338 24.07C85.9618 24.07 85.4438 23.8787 85.0798 23.496C84.7158 23.1133 84.5338 22.558 84.5338 21.83V18.61H83.2738V17.28H84.0438C84.2585 17.28 84.4172 17.2193 84.5198 17.098C84.6225 16.9767 84.6738 16.7807 84.6738 16.51V15.04H85.9338V17.28H87.5438V18.61H85.9338V21.69C85.9338 22.0353 86.0178 22.2967 86.1858 22.474C86.3538 22.6513 86.5965 22.74 86.9138 22.74C87.1752 22.74 87.4318 22.67 87.6838 22.53V23.86C87.5718 23.916 87.4178 23.9627 87.2218 24C87.0352 24.0467 86.8392 24.07 86.6338 24.07ZM91.3922 24.14C90.8135 24.14 90.2862 24.014 89.8102 23.762C89.3342 23.5007 88.9749 23.2067 88.7322 22.88L89.6422 21.97C89.8382 22.2033 90.0949 22.4133 90.4122 22.6C90.7295 22.7867 91.0609 22.88 91.4062 22.88C91.7795 22.88 92.0689 22.8007 92.2742 22.642C92.4795 22.4833 92.5822 22.2873 92.5822 22.054C92.5822 21.8487 92.4749 21.69 92.2602 21.578C92.0549 21.4567 91.7282 21.3307 91.2802 21.2C90.8135 21.06 90.4262 20.92 90.1182 20.78C89.8195 20.64 89.5582 20.4347 89.3342 20.164C89.1195 19.8933 89.0122 19.5387 89.0122 19.1C89.0122 18.7453 89.1102 18.4187 89.3062 18.12C89.5022 17.8213 89.7869 17.5833 90.1602 17.406C90.5335 17.2287 90.9675 17.14 91.4622 17.14C91.9942 17.14 92.4655 17.2333 92.8762 17.42C93.2962 17.6067 93.6182 17.8167 93.8422 18.05L92.9322 18.96C92.7735 18.8107 92.5635 18.68 92.3022 18.568C92.0409 18.456 91.7609 18.4 91.4622 18.4C91.1355 18.4 90.8789 18.47 90.6922 18.61C90.5055 18.75 90.4122 18.9133 90.4122 19.1C90.4122 19.3053 90.5102 19.464 90.7062 19.576C90.9115 19.6787 91.2429 19.8 91.7002 19.94C92.1762 20.08 92.5635 20.22 92.8622 20.36C93.1702 20.5 93.4315 20.7053 93.6462 20.976C93.8702 21.2467 93.9822 21.6013 93.9822 22.04C93.9822 22.4133 93.8749 22.7633 93.6602 23.09C93.4549 23.4073 93.1562 23.664 92.7642 23.86C92.3722 24.0467 91.9149 24.14 91.3922 24.14Z" fill="#617177"/>
</svg>
