<svg width="113" height="40" viewBox="0 0 113 40" fill="none" xmlns="http://www.w3.org/2000/svg">
<rect width="113" height="40" rx="8" fill="white"/>
<path fill-rule="evenodd" clip-rule="evenodd" d="M21 12.5C21.4602 12.5 21.8333 12.8731 21.8333 13.3333V15.9756C22.8043 16.3188 23.5 17.2448 23.5 18.3333C23.5 19.4218 22.8043 20.3479 21.8333 20.6911V26.6667C21.8333 27.1269 21.4602 27.5 21 27.5C20.5398 27.5 20.1667 27.1269 20.1667 26.6667V20.6911C19.1957 20.3479 18.5 19.4218 18.5 18.3333C18.5 17.2448 19.1957 16.3188 20.1667 15.9756V13.3333C20.1667 12.8731 20.5398 12.5 21 12.5ZM26 12.5C26.4602 12.5 26.8333 12.8731 26.8333 13.3333V20.9756C27.8043 21.3188 28.5 22.2448 28.5 23.3333C28.5 24.4218 27.8043 25.3479 26.8333 25.6911V26.6667C26.8333 27.1269 26.4602 27.5 26 27.5C25.5398 27.5 25.1667 27.1269 25.1667 26.6667V25.6911C24.1957 25.3479 23.5 24.4218 23.5 23.3333C23.5 22.2448 24.1957 21.3188 25.1667 20.9756V13.3333C25.1667 12.8731 25.5398 12.5 26 12.5ZM31 12.5C31.4602 12.5 31.8333 12.8731 31.8333 13.3333V13.4756C32.8043 13.8188 33.5 14.7448 33.5 15.8333C33.5 16.9218 32.8043 17.8479 31.8333 18.1911V26.6667C31.8333 27.1269 31.4602 27.5 31 27.5C30.5398 27.5 30.1667 27.1269 30.1667 26.6667V18.1911C29.1957 17.8479 28.5 16.9218 28.5 15.8333C28.5 14.7448 29.1957 13.8188 30.1667 13.4756V13.3333C30.1667 12.8731 30.5398 12.5 31 12.5ZM31 15C30.5398 15 30.1667 15.3731 30.1667 15.8333C30.1667 16.2936 30.5398 16.6667 31 16.6667C31.4602 16.6667 31.8333 16.2936 31.8333 15.8333C31.8333 15.3731 31.4602 15 31 15ZM21 17.5C20.5398 17.5 20.1667 17.8731 20.1667 18.3333C20.1667 18.7936 20.5398 19.1667 21 19.1667C21.4602 19.1667 21.8333 18.7936 21.8333 18.3333C21.8333 17.8731 21.4602 17.5 21 17.5ZM26 22.5C25.5398 22.5 25.1667 22.8731 25.1667 23.3333C25.1667 23.7936 25.5398 24.1667 26 24.1667C26.4602 24.1667 26.8333 23.7936 26.8333 23.3333C26.8333 22.8731 26.4602 22.5 26 22.5Z" fill="#617177"/>
<path d="M48.13 24.14C47.3367 24.14 46.6367 23.9953 46.03 23.706C45.4327 23.4167 44.966 23.0713 44.63 22.67L45.666 21.662C46.3473 22.3807 47.1687 22.74 48.13 22.74C48.7367 22.74 49.2127 22.6 49.558 22.32C49.9127 22.0307 50.09 21.6807 50.09 21.27C50.09 20.9713 49.9967 20.7287 49.81 20.542C49.6327 20.3553 49.404 20.206 49.124 20.094C48.8533 19.982 48.4753 19.8607 47.99 19.73C47.3273 19.534 46.7953 19.3473 46.394 19.17C45.9927 18.9833 45.6427 18.6987 45.344 18.316C45.0547 17.9333 44.91 17.4247 44.91 16.79C44.91 16.2953 45.0453 15.8427 45.316 15.432C45.5867 15.012 45.974 14.6807 46.478 14.438C46.9913 14.186 47.5887 14.06 48.27 14.06C48.9327 14.06 49.53 14.186 50.062 14.438C50.6033 14.69 51.0327 14.984 51.35 15.32L50.314 16.328C50.0713 16.0947 49.7727 15.894 49.418 15.726C49.0727 15.5487 48.69 15.46 48.27 15.46C47.7007 15.46 47.2527 15.5907 46.926 15.852C46.6087 16.104 46.45 16.4167 46.45 16.79C46.45 17.0887 46.5387 17.3313 46.716 17.518C46.9027 17.7047 47.1313 17.854 47.402 17.966C47.682 18.078 48.0647 18.1993 48.55 18.33C49.2127 18.526 49.7447 18.7173 50.146 18.904C50.5473 19.0813 50.8927 19.3613 51.182 19.744C51.4807 20.1267 51.63 20.6353 51.63 21.27C51.63 21.7833 51.4853 22.2593 51.196 22.698C50.916 23.1367 50.51 23.4867 49.978 23.748C49.446 24.0093 48.83 24.14 48.13 24.14ZM56.3862 24.14C55.7422 24.14 55.1495 23.986 54.6082 23.678C54.0762 23.37 53.6562 22.95 53.3482 22.418C53.0402 21.8767 52.8862 21.284 52.8862 20.64C52.8862 19.996 53.0402 19.408 53.3482 18.876C53.6562 18.344 54.0715 17.924 54.5942 17.616C55.1168 17.2987 55.6908 17.14 56.3162 17.14C56.9415 17.14 57.5015 17.2847 57.9962 17.574C58.5002 17.854 58.8922 18.246 59.1722 18.75C59.4615 19.2447 59.6062 19.8047 59.6062 20.43C59.6062 20.682 59.5828 20.9153 59.5362 21.13H54.3562C54.4308 21.5967 54.6642 21.9933 55.0562 22.32C55.4482 22.6467 55.9148 22.81 56.4562 22.81C57.1375 22.81 57.7675 22.5393 58.3462 21.998L59.2562 22.894C58.9948 23.2207 58.6122 23.51 58.1082 23.762C57.6135 24.014 57.0395 24.14 56.3862 24.14ZM58.1502 20.01C58.0475 19.5153 57.8375 19.1233 57.5202 18.834C57.2028 18.5447 56.8015 18.4 56.3162 18.4C55.7935 18.4 55.3642 18.5447 55.0282 18.834C54.7015 19.1233 54.4682 19.5153 54.3282 20.01H58.1502ZM63.8018 24.07C63.1298 24.07 62.6118 23.8787 62.2478 23.496C61.8838 23.1133 61.7018 22.558 61.7018 21.83V18.61H60.4418V17.28H61.2118C61.4265 17.28 61.5851 17.2193 61.6878 17.098C61.7905 16.9767 61.8418 16.7807 61.8418 16.51V15.04H63.1018V17.28H64.7118V18.61H63.1018V21.69C63.1018 22.0353 63.1858 22.2967 63.3538 22.474C63.5218 22.6513 63.7645 22.74 64.0818 22.74C64.3431 22.74 64.5998 22.67 64.8518 22.53V23.86C64.7398 23.916 64.5858 23.9627 64.3898 24C64.2031 24.0467 64.0071 24.07 63.8018 24.07ZM69.1202 24.07C68.4482 24.07 67.9302 23.8787 67.5662 23.496C67.2022 23.1133 67.0202 22.558 67.0202 21.83V18.61H65.7602V17.28H66.5302C66.7448 17.28 66.9035 17.2193 67.0062 17.098C67.1088 16.9767 67.1602 16.7807 67.1602 16.51V15.04H68.4202V17.28H70.0302V18.61H68.4202V21.69C68.4202 22.0353 68.5042 22.2967 68.6722 22.474C68.8402 22.6513 69.0828 22.74 69.4002 22.74C69.6615 22.74 69.9182 22.67 70.1702 22.53V23.86C70.0582 23.916 69.9042 23.9627 69.7082 24C69.5215 24.0467 69.3255 24.07 69.1202 24.07ZM73.1785 24H71.7785V17.28H73.1785V24ZM72.4785 16.02C72.2638 16.02 72.0678 15.9407 71.8905 15.782C71.7225 15.614 71.6385 15.4133 71.6385 15.18C71.6385 14.9467 71.7225 14.7507 71.8905 14.592C72.0678 14.424 72.2638 14.34 72.4785 14.34C72.6932 14.34 72.8845 14.424 73.0525 14.592C73.2298 14.7507 73.3185 14.9467 73.3185 15.18C73.3185 15.4133 73.2298 15.614 73.0525 15.782C72.8845 15.9407 72.6932 16.02 72.4785 16.02ZM75.2085 24V17.28H76.6085V18.232H76.6225C76.7998 17.952 77.0752 17.7 77.4485 17.476C77.8312 17.252 78.2512 17.14 78.7085 17.14C79.2218 17.14 79.6792 17.2613 80.0805 17.504C80.4818 17.7373 80.7945 18.078 81.0185 18.526C81.2518 18.9647 81.3685 19.4827 81.3685 20.08V24H79.9685V20.08C79.9685 19.5947 79.8238 19.2073 79.5345 18.918C79.2545 18.6193 78.8858 18.47 78.4285 18.47C77.8965 18.47 77.4578 18.6473 77.1125 19.002C76.7765 19.3473 76.6085 19.8 76.6085 20.36V24H75.2085ZM85.9913 26.94C85.3566 26.94 84.7686 26.7953 84.2273 26.506C83.6859 26.2167 83.2939 25.8947 83.0513 25.54L84.0312 24.63C84.2086 24.8727 84.4793 25.0967 84.8433 25.302C85.2073 25.5073 85.5899 25.61 85.9913 25.61C86.6166 25.61 87.1113 25.414 87.4753 25.022C87.8393 24.63 88.0213 24.1027 88.0213 23.44V22.838H88.0073C87.8206 23.0993 87.5313 23.3373 87.1393 23.552C86.7566 23.7573 86.3273 23.86 85.8513 23.86C85.3193 23.86 84.8199 23.7153 84.3533 23.426C83.8959 23.1367 83.5273 22.7353 83.2473 22.222C82.9766 21.7087 82.8413 21.1347 82.8413 20.5C82.8413 19.8653 82.9766 19.2913 83.2473 18.778C83.5273 18.2647 83.8959 17.8633 84.3533 17.574C84.8199 17.2847 85.3193 17.14 85.8513 17.14C86.3273 17.14 86.7566 17.2473 87.1393 17.462C87.5313 17.6673 87.8206 17.9007 88.0073 18.162H88.0213V17.28H89.4213V23.44C89.4213 24.112 89.2766 24.714 88.9873 25.246C88.6979 25.778 88.2919 26.1933 87.7693 26.492C87.2466 26.7907 86.6539 26.94 85.9913 26.94ZM86.1313 22.53C86.4766 22.53 86.7939 22.446 87.0833 22.278C87.3726 22.1007 87.6013 21.858 87.7693 21.55C87.9373 21.242 88.0213 20.892 88.0213 20.5C88.0213 20.108 87.9373 19.758 87.7693 19.45C87.6013 19.142 87.3726 18.904 87.0833 18.736C86.7939 18.5587 86.4766 18.47 86.1313 18.47C85.7859 18.47 85.4686 18.5587 85.1793 18.736C84.8899 18.904 84.6613 19.142 84.4933 19.45C84.3253 19.758 84.2413 20.108 84.2413 20.5C84.2413 20.892 84.3253 21.242 84.4933 21.55C84.6613 21.858 84.8899 22.1007 85.1793 22.278C85.4686 22.446 85.7859 22.53 86.1313 22.53ZM93.5523 24.14C92.9737 24.14 92.4463 24.014 91.9703 23.762C91.4943 23.5007 91.135 23.2067 90.8923 22.88L91.8023 21.97C91.9983 22.2033 92.255 22.4133 92.5723 22.6C92.8897 22.7867 93.221 22.88 93.5663 22.88C93.9397 22.88 94.229 22.8007 94.4343 22.642C94.6397 22.4833 94.7423 22.2873 94.7423 22.054C94.7423 21.8487 94.635 21.69 94.4203 21.578C94.215 21.4567 93.8883 21.3307 93.4403 21.2C92.9737 21.06 92.5863 20.92 92.2783 20.78C91.9797 20.64 91.7183 20.4347 91.4943 20.164C91.2797 19.8933 91.1723 19.5387 91.1723 19.1C91.1723 18.7453 91.2703 18.4187 91.4663 18.12C91.6623 17.8213 91.947 17.5833 92.3203 17.406C92.6937 17.2287 93.1277 17.14 93.6223 17.14C94.1543 17.14 94.6257 17.2333 95.0363 17.42C95.4563 17.6067 95.7783 17.8167 96.0023 18.05L95.0923 18.96C94.9337 18.8107 94.7237 18.68 94.4623 18.568C94.201 18.456 93.921 18.4 93.6223 18.4C93.2957 18.4 93.039 18.47 92.8523 18.61C92.6657 18.75 92.5723 18.9133 92.5723 19.1C92.5723 19.3053 92.6703 19.464 92.8663 19.576C93.0717 19.6787 93.403 19.8 93.8603 19.94C94.3363 20.08 94.7237 20.22 95.0223 20.36C95.3303 20.5 95.5917 20.7053 95.8063 20.976C96.0303 21.2467 96.1423 21.6013 96.1423 22.04C96.1423 22.4133 96.035 22.7633 95.8203 23.09C95.615 23.4073 95.3163 23.664 94.9243 23.86C94.5323 24.0467 94.075 24.14 93.5523 24.14Z" fill="#617177"/>
</svg>
